<svg id="visual" viewBox="0 0 900 600" width="900" height="600" xmlns="http://www.w3.org/2000/svg" xmlns:xlink="http://www.w3.org/1999/xlink" version="1.1"><rect x="0" y="0" width="900" height="600" fill="#ffffff"></rect><defs><linearGradient id="grad1_0" x1="33.3%" y1="100%" x2="100%" y2="0%"><stop offset="20%" stop-color="#a7d4ee" stop-opacity="1"></stop><stop offset="80%" stop-color="#a7d4ee" stop-opacity="1"></stop></linearGradient></defs><defs><linearGradient id="grad1_1" x1="33.3%" y1="100%" x2="100%" y2="0%"><stop offset="20%" stop-color="#a7d4ee" stop-opacity="1"></stop><stop offset="80%" stop-color="#ffffff" stop-opacity="1"></stop></linearGradient></defs><defs><linearGradient id="grad2_0" x1="0%" y1="100%" x2="66.7%" y2="0%"><stop offset="20%" stop-color="#a7d4ee" stop-opacity="1"></stop><stop offset="80%" stop-color="#a7d4ee" stop-opacity="1"></stop></linearGradient></defs><defs><linearGradient id="grad2_1" x1="0%" y1="100%" x2="66.7%" y2="0%"><stop offset="20%" stop-color="#ffffff" stop-opacity="1"></stop><stop offset="80%" stop-color="#a7d4ee" stop-opacity="1"></stop></linearGradient></defs><g transform="translate(900, 600)"><path d="M-378.6 0C-370.8 -39.9 -362.9 -79.9 -345.2 -112.2C-327.5 -144.4 -300 -169 -280.7 -204C-261.5 -238.9 -250.6 -284.1 -222.5 -306.3C-194.4 -328.4 -149 -327.5 -109.1 -335.7C-69.1 -343.9 -34.6 -361.3 0 -378.6L0 0Z" fill="#d4e9f7"></path><path d="M-189.3 0C-185.4 -20 -181.5 -39.9 -172.6 -56.1C-163.8 -72.2 -150 -84.5 -140.4 -102C-130.8 -119.4 -125.3 -142.1 -111.3 -153.1C-97.2 -164.2 -74.5 -163.8 -54.5 -167.9C-34.6 -172 -17.3 -180.6 0 -189.3L0 0Z" fill="#a7d4ee"></path></g><g transform="translate(0, 0)"><path d="M378.6 0C373.3 38.7 368 77.4 357.6 116.2C347.2 155 331.8 193.8 306.3 222.5C280.8 251.2 245.1 269.8 212.8 292.9C180.4 315.9 151.4 343.5 116.5 358.5C81.6 373.6 40.8 376.1 0 378.6L0 0Z" fill="#d4e9f7"></path><path d="M189.3 0C186.6 19.4 184 38.7 178.8 58.1C173.6 77.5 165.9 96.9 153.1 111.3C140.4 125.6 122.6 134.9 106.4 146.4C90.2 158 75.7 171.8 58.2 179.3C40.8 186.8 20.4 188 0 189.3L0 0Z" fill="#a7d4ee"></path></g></svg>