<svg width="193" height="493" viewBox="0 0 193 493" fill="none" xmlns="http://www.w3.org/2000/svg">
<rect y="220" width="96" height="96" fill="#0A0A0A"/>
<path fill-rule="evenodd" clip-rule="evenodd" d="M80.3582 244.522C80.7479 244.744 81.1987 244.314 80.9703 243.928C80.9467 243.888 80.9178 243.854 80.8828 243.824C64.193 229.379 35.8491 234.405 17.968 254.975C15.5569 257.748 13.9455 259.964 13.0029 261.758C12.2372 263.215 12.3239 264.169 12.9291 264.689C12.8305 266.059 15.7018 267.208 19.0545 266.434C40.4643 261.492 61.2638 269.239 70.5607 284.217C69.723 284.515 68.8996 284.929 68.1697 285.459C50.6845 298.163 29.2458 299.106 17.6452 288.448C17.3691 288.194 16.9214 288.458 17.0338 288.816C17.0455 288.853 17.0628 288.887 17.0859 288.919C27.8776 303.703 51.867 304.82 70.3346 291.403C72.7998 289.612 74.5237 288.121 75.6345 286.846C76.7505 285.565 76.671 284.66 75.9258 284.143C70.9654 265.921 47.4076 255.588 22.6528 260.769C39.567 241.745 64.0278 235.213 80.3582 244.522Z" fill="white"/>
</svg>
